<?xml version="1.0" encoding="UTF-8"?>
<svg version="1.1" xmlns="http://www.w3.org/2000/svg" width="36" height="36">
<path d="M0 0 C0.99 0.66 1.98 1.32 3 2 C3.66 1.67 4.32 1.34 5 1 C7.97 1 10.94 1 14 1 C13.67 10.9 13.34 20.8 13 31 C9.1273408 31.9681648 5.96388638 32.07622858 2 32 C1.67 31.34 1.34 30.68 1 30 C-0.8253125 30.0928125 -0.8253125 30.0928125 -2.6875 30.1875 C-6.60089052 30.1527452 -9.11849433 29.88150567 -12 27 C-12.42468097 24.203724 -12.23397834 21.85453575 -12 19 C-10.02 19 -8.04 19 -6 19 C-6.969375 18.731875 -7.93875 18.46375 -8.9375 18.1875 C-12 16 -12 16 -12.5859375 13.45703125 C-12.7354513 11.50561844 -12.83931161 9.55010302 -12.89453125 7.59375 C-12.88459781 4.8838357 -12.88459781 4.8838357 -14 2 C-9.5048914 -0.32005605 -4.96364462 -0.6320746 0 0 Z M5 2 C5 9.26 5 16.52 5 24 C5.33 24 5.66 24 6 24 C6 16.74 6 9.48 6 2 C5.67 2 5.34 2 5 2 Z M3 4 C3 6.31 3 8.62 3 11 C0.36 11 -2.28 11 -5 11 C-1.81237635 13.12508244 0.26512223 13.5020163 4 14 C4 10.7 4 7.4 4 4 C3.67 4 3.34 4 3 4 Z M3 15 C3 17.97 3 20.94 3 24 C3.33 24 3.66 24 4 24 C4 21.03 4 18.06 4 15 C3.67 15 3.34 15 3 15 Z " fill="#F7F7F7" transform="translate(17,2)"/>
<path d="M0 0 C0.33 0 0.66 0 1 0 C1 8.25 1 16.5 1 25 C0.67 25 0.34 25 0 25 C0 16.75 0 8.5 0 0 Z " fill="#FFFFFF" transform="translate(31,4)"/>
<path d="M0 0 C2.97 0 5.94 0 9 0 C9 0.33 9 0.66 9 1 C6.03 1 3.06 1 0 1 C0 0.67 0 0.34 0 0 Z " fill="#FFFFFF" transform="translate(8,0)"/>
<path d="M0 0 C2.31 0 4.62 0 7 0 C7 0.33 7 0.66 7 1 C4.69 1 2.38 1 0 1 C0 0.67 0 0.34 0 0 Z " fill="#FFFFFF" transform="translate(19,35)"/>
<path d="M0 0 C1.98 0 3.96 0 6 0 C6 0.33 6 0.66 6 1 C4.02 1 2.04 1 0 1 C0 0.67 0 0.34 0 0 Z " fill="#000000" transform="translate(9,33)"/>
<path d="M0 0 C1.65 0 3.3 0 5 0 C5 0.33 5 0.66 5 1 C3.35 1 1.7 1 0 1 C0 0.67 0 0.34 0 0 Z " fill="#FFFFFF" transform="translate(24,1)"/>
<path d="M0 0 C0.99 0 1.98 0 3 0 C2.67 0.66 2.34 1.32 2 2 C1.34 1.34 0.68 0.68 0 0 Z " fill="#DFDFDF" transform="translate(15,32)"/>
<path d="M0 0 C2 1 2 1 2 1 Z " fill="#7F7F7F" transform="translate(26,34)"/>
<path d="M0 0 C2 1 2 1 2 1 Z " fill="#FFFFFF" transform="translate(7,32)"/>
<path d="" fill="#FFFFFF" transform="translate(0,0)"/>
<path d="" fill="#FFFFFF" transform="translate(0,0)"/>
<path d="" fill="#FFFFFF" transform="translate(0,0)"/>
<path d="M0 0 C2 1 2 1 2 1 Z " fill="#FFFFFF" transform="translate(5,19)"/>
<path d="" fill="#FFFFFF" transform="translate(0,0)"/>
<path d="M0 0 C2 1 2 1 2 1 Z " fill="#FFFFFF" transform="translate(18,14)"/>
<path d="M0 0 C2 1 2 1 2 1 Z " fill="#FFFFFF" transform="translate(6,1)"/>
<path d="" fill="#FFFFFF" transform="translate(0,0)"/>
<path d="" fill="#FFFFFF" transform="translate(0,0)"/>
<path d="" fill="#FFFFFF" transform="translate(0,0)"/>
<path d="" fill="#FFFFFF" transform="translate(0,0)"/>
<path d="" fill="#FFFFFF" transform="translate(0,0)"/>
<path d="" fill="#FFFFFF" transform="translate(0,0)"/>
<path d="" fill="#FFFFFF" transform="translate(0,0)"/>
</svg>
